<svg xmlns="http://www.w3.org/2000/svg" viewBox="0 0 1920 1080" width="1920" height="1080" preserveAspectRatio="xMidYMid slice">
  <defs>
    <linearGradient id="bg" x1="0" y1="0" x2="0" y2="1">
      <stop offset="0%" stop-color="#07070f"/>
      <stop offset="100%" stop-color="#0d0d1a"/>
    </linearGradient>
    <radialGradient id="orb1" cx="50%" cy="50%" r="50%">
      <stop offset="0%" stop-color="#00d4ff" stop-opacity="0.5"/>
      <stop offset="100%" stop-color="#00d4ff" stop-opacity="0"/>
    </radialGradient>
    <radialGradient id="orb2" cx="50%" cy="50%" r="50%">
      <stop offset="0%" stop-color="#a855f7" stop-opacity="0.5"/>
      <stop offset="100%" stop-color="#a855f7" stop-opacity="0"/>
    </radialGradient>
  </defs>
  <rect width="1920" height="1080" fill="url(#bg)"/>
  <circle cx="350" cy="300" r="400" fill="url(#orb1)"/>
  <circle cx="1600" cy="800" r="500" fill="url(#orb2)"/>
  <g stroke="#00d4ff" stroke-width="1" opacity="0.15">
    <line x1="0"    y1="0"   x2="1920" y2="0"/>
    <line x1="0"    y1="60"  x2="1920" y2="60"/>
    <line x1="0"    y1="120" x2="1920" y2="120"/>
    <line x1="0"    y1="180" x2="1920" y2="180"/>
    <line x1="0"    y1="240" x2="1920" y2="240"/>
    <line x1="0"    y1="300" x2="1920" y2="300"/>
    <line x1="0"    y1="360" x2="1920" y2="360"/>
    <line x1="0"    y1="420" x2="1920" y2="420"/>
    <line x1="0"    y1="480" x2="1920" y2="480"/>
    <line x1="0"    y1="540" x2="1920" y2="540"/>
    <line x1="0"    y1="600" x2="1920" y2="600"/>
    <line x1="0"    y1="660" x2="1920" y2="660"/>
    <line x1="0"    y1="720" x2="1920" y2="720"/>
    <line x1="0"    y1="780" x2="1920" y2="780"/>
    <line x1="0"    y1="840" x2="1920" y2="840"/>
    <line x1="0"    y1="900" x2="1920" y2="900"/>
    <line x1="0"    y1="960" x2="1920" y2="960"/>
    <line x1="0"    y1="1020" x2="1920" y2="1020"/>
    <line x1="0"    y1="1080" x2="1920" y2="1080"/>
  </g>
</svg>
