<svg xmlns="http://www.w3.org/2000/svg" viewBox="0 0 800 500" width="800" height="500">
  <defs>
    <linearGradient id="g" x1="0" y1="0" x2="1" y2="1">
      <stop offset="0%" stop-color="#00d4ff" stop-opacity="0.4"/>
      <stop offset="100%" stop-color="#5b21b6" stop-opacity="0.4"/>
    </linearGradient>
    <linearGradient id="card" x1="0" y1="0" x2="0" y2="1">
      <stop offset="0%" stop-color="#1a0a2e"/>
      <stop offset="100%" stop-color="#07070f"/>
    </linearGradient>
  </defs>
  <rect width="800" height="500" fill="url(#card)"/>
  <rect x="50" y="50" width="700" height="400" rx="14" fill="url(#g)"/>
  <rect x="80" y="80" width="640" height="340" rx="10" fill="#0d0d1a"/>
  <!-- mock dashboard -->
  <rect x="100" y="100" width="180" height="14" rx="3" fill="#00d4ff" opacity="0.7"/>
  <rect x="100" y="125" width="120" height="10" rx="3" fill="#a855f7" opacity="0.5"/>
  <g transform="translate(100, 160)">
    <rect width="190" height="80" rx="8" fill="#13132a"/>
    <circle cx="30" cy="40" r="14" fill="url(#g)"/>
    <rect x="55" y="28" width="100" height="8" rx="2" fill="#fff" opacity="0.7"/>
    <rect x="55" y="44" width="70" height="6" rx="2" fill="#fff" opacity="0.4"/>
  </g>
  <g transform="translate(310, 160)">
    <rect width="190" height="80" rx="8" fill="#13132a"/>
    <circle cx="30" cy="40" r="14" fill="#a855f7"/>
    <rect x="55" y="28" width="100" height="8" rx="2" fill="#fff" opacity="0.7"/>
    <rect x="55" y="44" width="70" height="6" rx="2" fill="#fff" opacity="0.4"/>
  </g>
  <g transform="translate(520, 160)">
    <rect width="180" height="80" rx="8" fill="#13132a"/>
    <circle cx="30" cy="40" r="14" fill="#5b21b6"/>
    <rect x="55" y="28" width="100" height="8" rx="2" fill="#fff" opacity="0.7"/>
    <rect x="55" y="44" width="70" height="6" rx="2" fill="#fff" opacity="0.4"/>
  </g>
  <g transform="translate(100, 260)">
    <rect width="600" height="140" rx="8" fill="#13132a"/>
    <polyline points="20,110 80,80 140,95 200,55 260,70 320,30 380,50 440,40 500,60 580,25"
              fill="none" stroke="url(#g)" stroke-width="3" stroke-linecap="round" stroke-linejoin="round"/>
  </g>
  <text x="400" y="430" font-family="Space Grotesk, sans-serif" font-size="22" font-weight="700" text-anchor="middle" fill="#ffffff">Nexora Dashboard</text>
</svg>
