<svg xmlns="http://www.w3.org/2000/svg" viewBox="0 0 800 500" width="800" height="500">
  <defs>
    <linearGradient id="g" x1="0" y1="0" x2="1" y2="1">
      <stop offset="0%" stop-color="#00d4ff"/>
      <stop offset="100%" stop-color="#a855f7"/>
    </linearGradient>
    <linearGradient id="bg" x1="0" y1="0" x2="0" y2="1">
      <stop offset="0%" stop-color="#07070f"/>
      <stop offset="100%" stop-color="#1a0a2e"/>
    </linearGradient>
  </defs>
  <rect width="800" height="500" fill="url(#bg)"/>
  <!-- phone mock -->
  <g transform="translate(290, 60)">
    <rect width="220" height="400" rx="34" fill="#0d0d1a" stroke="url(#g)" stroke-width="3"/>
    <rect x="14" y="14" width="192" height="372" rx="22" fill="#13132a"/>
    <circle cx="110" cy="22" r="3" fill="#fff" opacity="0.5"/>
    <rect x="30" y="60" width="80" height="10" rx="3" fill="#fff" opacity="0.7"/>
    <rect x="30" y="80" width="120" height="8" rx="2" fill="#fff" opacity="0.4"/>
    <rect x="30" y="110" width="160" height="60" rx="10" fill="url(#g)" opacity="0.5"/>
    <rect x="30" y="180" width="160" height="50" rx="10" fill="#1a0a2e"/>
    <rect x="40" y="195" width="60" height="6" rx="2" fill="#fff" opacity="0.7"/>
    <rect x="40" y="210" width="100" height="6" rx="2" fill="#fff" opacity="0.4"/>
    <rect x="30" y="240" width="160" height="50" rx="10" fill="#1a0a2e"/>
    <rect x="40" y="255" width="60" height="6" rx="2" fill="#fff" opacity="0.7"/>
    <rect x="40" y="270" width="100" height="6" rx="2" fill="#fff" opacity="0.4"/>
    <rect x="30" y="300" width="160" height="50" rx="10" fill="#1a0a2e"/>
    <rect x="40" y="315" width="60" height="6" rx="2" fill="#fff" opacity="0.7"/>
    <rect x="40" y="330" width="100" height="6" rx="2" fill="#fff" opacity="0.4"/>
  </g>
  <text x="400" y="480" font-family="Space Grotesk, sans-serif" font-size="22" font-weight="700" text-anchor="middle" fill="#ffffff">Taskly Mobile</text>
</svg>
